<svg width="300" height="300" viewBox="0 0 300 300" fill="none" xmlns="http://www.w3.org/2000/svg">
<path d="M241.386 226.632L241.727 226.222C253.984 211.475 262.509 193.992 266.581 175.254C270.652 156.515 270.151 137.071 265.118 118.568C260.086 100.064 250.671 83.0442 237.67 68.9486C224.669 54.853 208.465 44.096 190.427 37.5876C172.389 31.0793 153.05 29.011 134.044 31.5578C115.038 34.1045 96.9246 41.1915 81.2369 52.219C65.5491 63.2465 52.748 77.8902 43.9166 94.9114C35.0852 111.933 30.4832 130.83 30.5 150.006L30.5 150.006C30.5065 177.882 40.3297 204.865 58.2459 226.22L58.5652 226.601L58.4012 226.74C58.5919 226.95 58.7905 227.155 58.995 227.366L59.0679 227.441C59.3658 227.748 59.6756 228.066 59.9709 228.407M241.386 226.632L59.594 228.735M241.386 226.632L241.565 226.762M241.386 226.632L241.565 226.762M59.9709 228.407C59.9712 228.407 59.9715 228.407 59.9717 228.408L59.594 228.735M59.9709 228.407C59.9708 228.407 59.9707 228.407 59.9706 228.406L59.594 228.735M59.9709 228.407C60.4655 228.973 60.9776 229.509 61.4978 230.055C61.7833 230.354 62.0712 230.656 62.3599 230.966L62.3616 230.968C64.7538 233.565 67.2114 236.057 69.7861 238.393L69.7873 238.394C70.3307 238.89 70.8822 239.358 71.4398 239.831C71.6841 240.038 71.9295 240.246 72.176 240.458L72.1765 240.458C74.9079 242.814 77.7143 245.049 80.6213 247.129M59.594 228.735C60.0952 229.309 60.6217 229.861 61.1476 230.412C61.4312 230.709 61.7146 231.006 61.9938 231.307C64.3935 233.912 66.8618 236.415 69.4501 238.763C70.0005 239.265 70.5634 239.743 71.1243 240.219C71.3669 240.424 71.6092 240.63 71.8499 240.837C74.5925 243.202 77.4122 245.448 80.3347 247.539C80.5312 247.673 80.7185 247.828 80.9061 247.983C80.9146 247.99 80.9232 247.997 80.9317 248.005V247.359M80.6213 247.129C80.6197 247.128 80.618 247.127 80.6164 247.126L80.3348 247.539L80.6257 247.132C80.6242 247.131 80.6228 247.13 80.6213 247.129ZM80.6213 247.129C80.7286 247.203 80.8323 247.281 80.9317 247.359M80.9317 247.359V247.33L81.7195 247.884C101.708 261.951 125.554 269.5 149.996 269.5C174.438 269.5 198.283 261.951 218.272 247.884L219.06 247.33V247.356C219.159 247.279 219.263 247.201 219.372 247.128C222.271 245.039 225.086 242.813 227.815 240.458L227.816 240.458C228.053 240.254 228.289 240.053 228.525 239.852C229.091 239.37 229.653 238.891 230.205 238.393C232.781 236.048 235.238 233.565 237.63 230.968L237.632 230.966C237.922 230.654 238.21 230.351 238.497 230.049C239.013 229.507 239.522 228.971 240.021 228.407C240.314 228.064 240.627 227.743 240.926 227.434L240.994 227.365C241.19 227.162 241.382 226.964 241.565 226.762M80.9317 247.359C81.0258 247.434 81.1161 247.508 81.202 247.579L81.2189 247.593C81.3787 247.725 81.5239 247.846 81.6714 247.953C81.6874 247.964 81.7035 247.976 81.7197 247.987L81.5042 248.293H81.9317V248.396V248.643C101.902 262.544 125.654 270 149.996 270C174.337 270 198.09 262.544 218.06 248.643V248.396V248.293H218.488L241.565 226.762M241.565 226.762L241.818 226.946L241.972 227.058C241.749 227.305 241.518 227.543 241.288 227.78C240.984 228.092 240.682 228.403 240.398 228.735C239.893 229.306 239.371 229.855 238.85 230.404C238.565 230.704 238.28 231.004 237.998 231.307C235.598 233.912 233.13 236.406 230.542 238.763C229.983 239.266 229.412 239.753 228.844 240.237C228.609 240.437 228.375 240.637 228.142 240.837C225.399 243.202 222.571 245.439 219.657 247.539C219.451 247.677 219.259 247.836 219.068 247.996C219.065 247.998 219.063 248 219.06 248.002L241.565 226.762ZM57.8228 226.842C57.8878 226.917 57.9536 226.991 58.02 227.064L57.6918 226.687L57.6914 226.687L57.8228 226.842ZM80.9832 226.535L80.9802 226.761L81.1484 226.913C100.037 243.934 124.561 253.353 149.987 253.353C175.413 253.353 199.938 243.934 218.826 226.913L218.994 226.761L218.991 226.535C218.841 215.15 214.214 204.282 206.112 196.282C198.011 188.283 187.085 183.794 175.699 183.789H175.699H124.276H124.275C112.89 183.794 101.964 188.283 93.8621 196.282C85.7602 204.282 81.1336 215.15 80.9832 226.535ZM171.692 87.5265C165.267 83.2337 157.714 80.9424 149.987 80.9424C139.626 80.9424 129.689 85.0585 122.363 92.385C115.036 99.7115 110.92 109.648 110.92 120.01C110.92 127.737 113.211 135.29 117.504 141.714C121.797 148.139 127.898 153.146 135.037 156.103C142.176 159.06 150.031 159.834 157.609 158.326C165.187 156.819 172.148 153.098 177.612 147.635C183.076 142.171 186.797 135.21 188.304 127.631C189.811 120.053 189.038 112.198 186.081 105.059C183.124 97.9207 178.117 91.8192 171.692 87.5265Z" fill="#F6FAFD" stroke="#EAF1F5"/>
</svg>
